<svg width="45" height="41" viewBox="0 0 45 41" fill="none" xmlns="http://www.w3.org/2000/svg">
    <path d="M10.7533 40.0702C7.85147 40.0702 5.35455 38.7964 3.26253 36.2488C1.17052 33.7011 0.124512 30.6603 0.124512 27.1265C0.124512 23.9214 0.959631 21.0963 2.62987 18.6514C4.30011 16.2065 6.45117 14.7375 9.08306 14.2444C9.7579 10.2585 11.3438 7.00202 13.8407 4.47491C16.3376 1.94779 19.2226 0.684235 22.4956 0.684235C26.3084 0.684235 29.5055 2.3587 32.0868 5.70765C34.6681 9.05659 35.9587 13.0733 35.9587 17.7577V19.237C38.3881 19.1548 40.4464 20.1101 42.1335 22.1031C43.8206 24.096 44.6642 26.6128 44.6642 29.6536C44.6642 32.4889 43.8206 34.9338 42.1335 36.9884C40.4464 39.043 38.4388 40.0702 36.1105 40.0702H23.9127C23.1029 40.0702 22.3943 39.7004 21.787 38.9608C21.1796 38.2211 20.876 37.3582 20.876 36.372V20.4697L16.6751 25.5856L14.4987 22.9352L22.3943 13.3198L30.29 22.9352L28.1136 25.5856L23.9127 20.4697V36.372H36.1105C37.6289 36.372 38.928 35.7146 40.0078 34.3996C41.0875 33.0847 41.6274 31.5027 41.6274 29.6536C41.6274 27.8045 41.0875 26.2225 40.0078 24.9076C38.928 23.5926 37.6289 22.9352 36.1105 22.9352H32.9219V17.7577C32.9219 14.1005 31.9012 10.9571 29.8598 8.32722C27.8184 5.69737 25.2962 4.38245 22.2931 4.38245C19.2901 4.38245 16.7594 5.69737 14.7011 8.32722C12.6429 10.9571 11.6137 14.1005 11.6137 17.7577H10.6521C8.56006 17.7577 6.78859 18.6514 5.33768 20.4389C3.88676 22.2264 3.16131 24.435 3.16131 27.0648C3.16131 29.6125 3.90364 31.8006 5.38829 33.6292C6.87295 35.4577 8.66128 36.372 10.7533 36.372H17.8392V40.0702H10.7533Z" fill="#2C2C2C"/>
    </svg>
    