<svg width="28" height="29" viewBox="0 0 28 29" fill="none" xmlns="http://www.w3.org/2000/svg">
<circle cx="14.0306" cy="14.6321" r="13.7678" fill="black" fill-opacity="0.2"/>
<path d="M11.6509 23.1463L11.3103 20.4217C11.1259 20.3508 10.952 20.2656 10.7888 20.1663C10.6257 20.067 10.466 19.9605 10.3099 19.847L7.77695 20.9113L5.43555 16.867L7.62795 15.2068C7.61376 15.1074 7.60667 15.0116 7.60667 14.9194V14.3447C7.60667 14.2525 7.61376 14.1567 7.62795 14.0573L5.43555 12.3971L7.77695 8.35284L10.3099 9.41711C10.466 9.30359 10.6292 9.19716 10.7995 9.09783C10.9698 8.9985 11.1401 8.91335 11.3103 8.8424L11.6509 6.11786H16.3337L16.6743 8.8424C16.8588 8.91335 17.0326 8.9985 17.1958 9.09783C17.359 9.19716 17.5186 9.30359 17.6747 9.41711L20.2077 8.35284L22.5491 12.3971L20.3567 14.0573C20.3709 14.1567 20.378 14.2525 20.378 14.3447V14.9194C20.378 15.0116 20.3638 15.1074 20.3354 15.2068L22.5278 16.867L20.1864 20.9113L17.6747 19.847C17.5186 19.9605 17.3554 20.067 17.1851 20.1663C17.0149 20.2656 16.8446 20.3508 16.6743 20.4217L16.3337 23.1463H11.6509ZM13.1409 21.4434H14.8224L15.1204 19.1872C15.5603 19.0736 15.9683 18.9069 16.3444 18.6869C16.7204 18.467 17.0645 18.2009 17.3767 17.8887L19.484 18.7614L20.3141 17.314L18.4836 15.9305C18.5545 15.7318 18.6042 15.5225 18.6326 15.3025C18.6609 15.0826 18.6751 14.8591 18.6751 14.6321C18.6751 14.405 18.6609 14.1815 18.6326 13.9616C18.6042 13.7416 18.5545 13.5323 18.4836 13.3336L20.3141 11.9501L19.484 10.5027L17.3767 11.3967C17.0645 11.0703 16.7204 10.7971 16.3444 10.5772C15.9683 10.3572 15.5603 10.1905 15.1204 10.077L14.8437 7.8207H13.1622L12.8642 10.077C12.4243 10.1905 12.0163 10.3572 11.6403 10.5772C11.2642 10.7971 10.9201 11.0632 10.6079 11.3754L8.50066 10.5027L7.67052 11.9501L9.50108 13.3124C9.43012 13.5252 9.38046 13.7381 9.35208 13.9509C9.3237 14.1638 9.30951 14.3908 9.30951 14.6321C9.30951 14.8591 9.3237 15.0791 9.35208 15.2919C9.38046 15.5048 9.43012 15.7176 9.50108 15.9305L7.67052 17.314L8.50066 18.7614L10.6079 17.8675C10.9201 18.1938 11.2642 18.467 11.6403 18.6869C12.0163 18.9069 12.4243 19.0736 12.8642 19.1872L13.1409 21.4434ZM14.0349 17.612C14.8579 17.612 15.5603 17.3211 16.1421 16.7393C16.724 16.1575 17.0149 15.4551 17.0149 14.6321C17.0149 13.809 16.724 13.1066 16.1421 12.5248C15.5603 11.943 14.8579 11.6521 14.0349 11.6521C13.1977 11.6521 12.4917 11.943 11.917 12.5248C11.3423 13.1066 11.0549 13.809 11.0549 14.6321C11.0549 15.4551 11.3423 16.1575 11.917 16.7393C12.4917 17.3211 13.1977 17.612 14.0349 17.612Z" fill="white"/>
</svg>
