<svg width="16" height="17" viewBox="0 0 16 17" fill="none" xmlns="http://www.w3.org/2000/svg">
<path d="M2.0885 16.2808C1.62108 16.2808 1.22094 16.1143 0.888083 15.7815C0.555224 15.4486 0.388794 15.0485 0.388794 14.5811V2.68311C0.388794 2.21569 0.555224 1.81555 0.888083 1.48269C1.22094 1.14983 1.62108 0.983398 2.0885 0.983398H13.9865C14.4539 0.983398 14.854 1.14983 15.1869 1.48269C15.5197 1.81555 15.6862 2.21569 15.6862 2.68311V14.5811C15.6862 15.0485 15.5197 15.4486 15.1869 15.7815C14.854 16.1143 14.4539 16.2808 13.9865 16.2808H2.0885ZM2.0885 14.5811H7.18762V2.68311H2.0885V14.5811ZM8.88733 14.5811H13.9865V8.63208H8.88733V14.5811ZM8.88733 6.93237H13.9865V2.68311H8.88733V6.93237Z" fill="#ABB9E8"/>
</svg>
