<svg width="17" height="18" viewBox="0 0 17 18" fill="none" xmlns="http://www.w3.org/2000/svg">
    <path d="M10.8378 11.9374L11.8295 10.9457L9.20866 8.32486V5.06653H7.79199V8.89153L10.8378 11.9374ZM8.50033 15.6915C7.52046 15.6915 6.59963 15.5056 5.73783 15.1337C4.87602 14.7618 4.12637 14.2572 3.48887 13.6197C2.85137 12.9822 2.34668 12.2325 1.9748 11.3707C1.60293 10.5089 1.41699 9.58806 1.41699 8.6082C1.41699 7.62834 1.60293 6.7075 1.9748 5.8457C2.34668 4.98389 2.85137 4.23424 3.48887 3.59674C4.12637 2.95924 4.87602 2.45455 5.73783 2.08268C6.59963 1.7108 7.52046 1.52486 8.50033 1.52486C9.48019 1.52486 10.401 1.7108 11.2628 2.08268C12.1246 2.45455 12.8743 2.95924 13.5118 3.59674C14.1493 4.23424 14.654 4.98389 15.0258 5.8457C15.3977 6.7075 15.5837 7.62834 15.5837 8.6082C15.5837 9.58806 15.3977 10.5089 15.0258 11.3707C14.654 12.2325 14.1493 12.9822 13.5118 13.6197C12.8743 14.2572 12.1246 14.7618 11.2628 15.1337C10.401 15.5056 9.48019 15.6915 8.50033 15.6915ZM8.50033 14.2749C10.0705 14.2749 11.4074 13.723 12.5113 12.6191C13.6151 11.5153 14.167 10.1783 14.167 8.6082C14.167 7.03806 13.6151 5.70108 12.5113 4.59726C11.4074 3.49344 10.0705 2.94153 8.50033 2.94153C6.93019 2.94153 5.59321 3.49344 4.48939 4.59726C3.38557 5.70108 2.83366 7.03806 2.83366 8.6082C2.83366 10.1783 3.38557 11.5153 4.48939 12.6191C5.59321 13.723 6.93019 14.2749 8.50033 14.2749Z" fill="black"/>
    </svg>
    