<svg width="29" height="28" viewBox="0 0 29 28" fill="none" xmlns="http://www.w3.org/2000/svg">
    <circle cx="14.6262" cy="13.9766" r="13.7678" fill="#0AB39C" fill-opacity="0.3"/>
    <path d="M9.72579 18.8769H10.7234L17.5664 12.0339L16.5688 11.0363L9.72579 17.8794V18.8769ZM8.32568 20.277V17.3018L17.5664 8.07862C17.7064 7.95027 17.861 7.8511 18.0302 7.78109C18.1993 7.71109 18.3773 7.67609 18.564 7.67609C18.7506 7.67609 18.9315 7.71109 19.1065 7.78109C19.2815 7.8511 19.4332 7.95611 19.5615 8.09612L20.5241 9.07619C20.6641 9.20454 20.7662 9.35621 20.8304 9.53123C20.8946 9.70624 20.9266 9.88125 20.9266 10.0563C20.9266 10.2429 20.8946 10.4209 20.8304 10.5901C20.7662 10.7592 20.6641 10.9138 20.5241 11.0538L11.3009 20.277H8.32568ZM17.0588 11.5439L16.5688 11.0363L17.5664 12.0339L17.0588 11.5439Z" fill="#0AB39C"/>
    </svg>
    