<svg width="16" height="13" viewBox="0 0 16 13" fill="none" xmlns="http://www.w3.org/2000/svg">
<path d="M3.59396 6.97268H10.4778V5.44294H3.59396V6.97268ZM3.59396 4.67808H10.4778V3.14834H3.59396V4.67808ZM2.06422 12.3268C1.64354 12.3268 1.28342 12.177 0.983845 11.8774C0.684272 11.5778 0.534485 11.2177 0.534485 10.797V1.6186C0.534485 1.19793 0.684272 0.837801 0.983845 0.538227C1.28342 0.238654 1.64354 0.0888672 2.06422 0.0888672H14.3021C14.7228 0.0888672 15.0829 0.238654 15.3825 0.538227C15.6821 0.837801 15.8318 1.19793 15.8318 1.6186V10.797C15.8318 11.2177 15.6821 11.5778 15.3825 11.8774C15.0829 12.177 14.7228 12.3268 14.3021 12.3268H2.06422ZM2.06422 10.797H14.3021V1.6186H2.06422V10.797Z" fill="#ABB9E8"/>
</svg>
