<svg width="22" height="22" viewBox="0 0 22 22" fill="none" xmlns="http://www.w3.org/2000/svg">
<path d="M10.9987 1.83594C5.94786 1.83594 1.83203 5.95177 1.83203 11.0026C1.83203 16.0534 5.94786 20.1693 10.9987 20.1693C16.0495 20.1693 20.1654 16.0534 20.1654 11.0026C20.1654 5.95177 16.0495 1.83594 10.9987 1.83594ZM10.3112 7.33594C10.3112 6.9601 10.6229 6.64844 10.9987 6.64844C11.3745 6.64844 11.6862 6.9601 11.6862 7.33594V11.9193C11.6862 12.2951 11.3745 12.6068 10.9987 12.6068C10.6229 12.6068 10.3112 12.2951 10.3112 11.9193V7.33594ZM11.842 15.0176C11.7962 15.1368 11.732 15.2284 11.6495 15.3201C11.5579 15.4026 11.457 15.4668 11.347 15.5126C11.237 15.5584 11.1179 15.5859 10.9987 15.5859C10.8795 15.5859 10.7604 15.5584 10.6504 15.5126C10.5404 15.4668 10.4395 15.4026 10.3479 15.3201C10.2654 15.2284 10.2012 15.1368 10.1554 15.0176C10.1095 14.9076 10.082 14.7884 10.082 14.6693C10.082 14.5501 10.1095 14.4309 10.1554 14.3209C10.2012 14.2109 10.2654 14.1101 10.3479 14.0184C10.4395 13.9359 10.5404 13.8718 10.6504 13.8259C10.8704 13.7343 11.127 13.7343 11.347 13.8259C11.457 13.8718 11.5579 13.9359 11.6495 14.0184C11.732 14.1101 11.7962 14.2109 11.842 14.3209C11.8879 14.4309 11.9154 14.5501 11.9154 14.6693C11.9154 14.7884 11.8879 14.9076 11.842 15.0176Z" fill="#E85F1C"/>
</svg>
