<svg width="38" height="39" viewBox="0 0 38 39" fill="none" xmlns="http://www.w3.org/2000/svg">
<path d="M9.71069 30.8326C9.17704 30.8326 8.72971 30.6521 8.3687 30.2911C8.0077 29.9301 7.8272 29.4828 7.8272 28.9491V25.1821H32.3126V8.23064H36.0796C36.6133 8.23064 37.0606 8.41114 37.4216 8.77214C37.7826 9.13315 37.9631 9.58048 37.9631 10.1141V38.3666L30.4291 30.8326H9.71069ZM0.293213 28.9491V2.58015C0.293213 2.04649 0.473715 1.59916 0.834718 1.23816C1.19572 0.877157 1.64305 0.696655 2.17671 0.696655H26.6622C27.1958 0.696655 27.6431 0.877157 28.0041 1.23816C28.3652 1.59916 28.5457 2.04649 28.5457 2.58015V19.5316C28.5457 20.0653 28.3652 20.5126 28.0041 20.8736C27.6431 21.2346 27.1958 21.4151 26.6622 21.4151H7.8272L0.293213 28.9491ZM24.7787 17.6481V4.46365H4.0602V17.6481H24.7787Z" fill="#405189"/>
</svg>
