<svg width="18" height="18" viewBox="0 0 18 18" fill="none" xmlns="http://www.w3.org/2000/svg">
<path d="M9.03061 12.0728C9.87646 12.0728 10.7904 11.9259 11.7725 11.632C12.7545 11.3381 14.1129 10.8112 15.8476 10.0514C15.8763 9.89366 15.8942 9.73954 15.9014 9.58901C15.9085 9.43848 15.9121 9.28436 15.9121 9.12666C15.9121 8.96896 15.8512 8.83993 15.7293 8.73957C15.6075 8.63922 15.4677 8.61054 15.31 8.65355C15.1093 8.72524 14.8871 8.8005 14.6433 8.87935C14.3996 8.9582 14.0914 9.07648 13.7186 9.23418C12.7294 9.64994 11.8836 9.94025 11.1811 10.1051C10.4786 10.27 9.76177 10.3524 9.03061 10.3524C8.28511 10.3524 7.55395 10.2664 6.83712 10.0944C6.1203 9.92233 5.24577 9.62844 4.21355 9.21268C3.8408 9.05498 3.55407 8.94028 3.35336 8.8686L2.75122 8.65355C2.59352 8.59621 2.45374 8.6213 2.33188 8.72882C2.21002 8.83634 2.14909 8.96896 2.14909 9.12666C2.14909 9.28436 2.15267 9.43848 2.15984 9.58901C2.16701 9.73954 2.18493 9.89366 2.2136 10.0514C3.66159 10.7395 4.94829 11.2485 6.07371 11.5782C7.19912 11.9079 8.18476 12.0728 9.03061 12.0728ZM9.03061 15.5136C10.3782 15.5136 11.5753 15.2197 12.6219 14.6319C13.6685 14.0441 14.4856 13.2556 15.0734 12.2664C13.8118 12.7968 12.7008 13.1839 11.7402 13.4276C10.7797 13.6713 9.87646 13.7932 9.03061 13.7932C8.19909 13.7932 7.27439 13.6677 6.2565 13.4169C5.23861 13.166 4.14186 12.7896 2.96627 12.2879C3.53973 13.2771 4.35333 14.062 5.40706 14.6426C6.46079 15.2233 7.66864 15.5136 9.03061 15.5136ZM9.03061 6.91167C8.0844 6.91167 7.27439 6.57476 6.60057 5.90095C5.92676 5.22713 5.58985 4.41712 5.58985 3.47091C5.58985 2.5247 5.92676 1.71469 6.60057 1.04087C7.27439 0.367059 8.0844 0.0301514 9.03061 0.0301514C9.97682 0.0301514 10.7868 0.367059 11.4606 1.04087C12.1345 1.71469 12.4714 2.5247 12.4714 3.47091C12.4714 4.41712 12.1345 5.22713 11.4606 5.90095C10.7868 6.57476 9.97682 6.91167 9.03061 6.91167ZM9.03061 5.19129C9.50371 5.19129 9.90872 5.02284 10.2456 4.68593C10.5825 4.34902 10.751 3.94402 10.751 3.47091C10.751 2.99781 10.5825 2.5928 10.2456 2.25589C9.90872 1.91898 9.50371 1.75053 9.03061 1.75053C8.5575 1.75053 8.1525 1.91898 7.81559 2.25589C7.47868 2.5928 7.31023 2.99781 7.31023 3.47091C7.31023 3.94402 7.47868 4.34902 7.81559 4.68593C8.1525 5.02284 8.5575 5.19129 9.03061 5.19129ZM9.03061 17.2339C6.49305 17.2339 4.42501 16.4813 2.82649 14.9759C1.22797 13.4706 0.428711 11.5209 0.428711 9.12666C0.428711 8.38116 0.726193 7.7862 1.32116 7.34176C1.91612 6.89733 2.56485 6.78981 3.26734 7.01919C3.49672 7.09088 3.73686 7.17331 3.98775 7.2665C4.23863 7.35969 4.53612 7.47796 4.88019 7.62133C5.79773 7.99408 6.55756 8.25572 7.1597 8.40625C7.76183 8.55678 8.38547 8.63205 9.03061 8.63205C9.64708 8.63205 10.2564 8.56037 10.8585 8.417C11.4606 8.27364 12.199 8.01558 13.0735 7.64283C13.4893 7.48513 13.8226 7.3561 14.0735 7.25575C14.3244 7.15539 14.5717 7.06937 14.8154 6.99769C15.5179 6.79698 16.163 6.91884 16.7508 7.36327C17.3386 7.8077 17.6325 8.3955 17.6325 9.12666C17.6325 10.2592 17.4103 11.3166 16.9659 12.2986C16.5214 13.2807 15.9121 14.1373 15.138 14.8684C14.3638 15.5996 13.4534 16.1766 12.4069 16.5996C11.3603 17.0225 10.2349 17.2339 9.03061 17.2339Z" fill="#ABB9E8"/>
</svg>
