<svg width="26" height="26" viewBox="0 0 26 26" fill="none" xmlns="http://www.w3.org/2000/svg">
<path d="M4.3208 20.1858V18.107H6.39964V10.831C6.39964 9.39313 6.83274 8.11551 7.69892 6.99813C8.56511 5.88075 9.69115 5.14883 11.077 4.80235V4.07476C11.077 3.64167 11.2286 3.27354 11.5318 2.97037C11.835 2.66721 12.2031 2.51562 12.6362 2.51562C13.0693 2.51562 13.4374 2.66721 13.7406 2.97037C14.0437 3.27354 14.1953 3.64167 14.1953 4.07476V4.80235C15.5812 5.14883 16.7072 5.88075 17.5734 6.99813C18.4396 8.11551 18.8727 9.39313 18.8727 10.831V18.107H20.9516V20.1858H4.3208ZM12.6362 23.3041C12.0645 23.3041 11.5751 23.1005 11.168 22.6934C10.7609 22.2863 10.5573 21.7969 10.5573 21.2252H14.715C14.715 21.7969 14.5115 22.2863 14.1044 22.6934C13.6973 23.1005 13.2079 23.3041 12.6362 23.3041ZM8.47849 18.107H16.7939V10.831C16.7939 9.68764 16.3868 8.70885 15.5725 7.89463C14.7583 7.08042 13.7795 6.67331 12.6362 6.67331C11.4928 6.67331 10.514 7.08042 9.69981 7.89463C8.8856 8.70885 8.47849 9.68764 8.47849 10.831V18.107Z" fill="#878A99"/>
</svg>
