<svg width="13" height="13" viewBox="0 0 13 13" fill="none" xmlns="http://www.w3.org/2000/svg">
    <g clip-path="url(#clip0_149_1191)">
        <path
            d="M3.00117 5.0755L1.6019 6.6294L1.04026 6.06802C0.80222 5.82998 0.416663 5.82998 0.178499 6.06802C-0.0596649 6.30605 -0.059538 6.69161 0.178499 6.92977L1.19412 7.9454C1.30838 8.06143 1.46403 8.12491 1.60215 8.12491C1.6077 8.12491 1.61247 8.12491 1.61803 8.12452C1.78545 8.12015 1.94328 8.04756 2.05525 7.92337L3.88338 5.89212C4.10872 5.64179 4.08808 5.25659 3.83816 5.03112C3.61055 4.80636 3.22715 4.82667 3.00117 5.0755ZM3.00117 1.01401L1.6019 2.5669L1.04026 2.00552C0.80222 1.76748 0.416663 1.76748 0.178499 2.00552C-0.0596649 2.24355 -0.059538 2.62911 0.178499 2.86727L1.19412 3.8829C1.30838 3.99893 1.46403 4.06241 1.60215 4.06241C1.6077 4.06241 1.61247 4.06241 1.61803 4.06202C1.78545 4.05765 1.94328 3.98506 2.05525 3.86087L3.88338 1.82962C4.10872 1.57929 4.08808 1.19409 3.83816 0.968624C3.61055 0.74411 3.22715 0.763915 3.00117 1.01401ZM1.21875 9.32081C0.545648 9.32081 3.05069e-06 9.86645 3.05069e-06 10.5396C3.05069e-06 11.2127 0.545648 11.7583 1.21875 11.7583C1.89186 11.7583 2.4375 11.2127 2.4375 10.5396C2.4375 9.88956 1.89186 9.32081 1.21875 9.32081ZM6.5 3.24991H12.1875C12.6362 3.24991 13 2.88606 13 2.43741C13 1.98876 12.6362 1.62491 12.1875 1.62491H6.5C6.05059 1.62491 5.6875 1.98876 5.6875 2.43741C5.6875 2.88606 6.05059 3.24991 6.5 3.24991ZM12.1875 5.68741H6.5C6.05059 5.68741 5.6875 6.0505 5.6875 6.49991C5.6875 6.94933 6.05135 7.31241 6.5 7.31241H12.1875C12.6362 7.31241 13 6.94856 13 6.49991C13 6.05126 12.6369 5.68741 12.1875 5.68741ZM12.1875 9.74991H4.875C4.42635 9.74991 4.0625 10.1138 4.0625 10.5624C4.0625 11.0111 4.42635 11.3749 4.875 11.3749H12.1875C12.6362 11.3749 13 11.0111 13 10.5624C13 10.1138 12.6369 9.74991 12.1875 9.74991Z"
            fill="#848E92" />
    </g>
    <defs>
        <clipPath id="clip0_149_1191">
            <rect width="13" height="13" fill="white" />
        </clipPath>
    </defs>
</svg>
    