<svg width="29" height="28" viewBox="0 0 29 28" fill="none" xmlns="http://www.w3.org/2000/svg">
    <circle cx="14.4651" cy="13.9766" r="13.7678" fill="#EE0000" fill-opacity="0.3"/>
    <path d="M12.7407 16.961L14.4651 15.2367L16.1894 16.961L17.1179 16.0325L15.3936 14.3082L17.1179 12.5838L16.1894 11.6553L14.4651 13.3797L12.7407 11.6553L11.8123 12.5838L13.5366 14.3082L11.8123 16.0325L12.7407 16.961ZM11.149 19.9454C10.7843 19.9454 10.472 19.8156 10.2123 19.5558C9.95251 19.296 9.82263 18.9838 9.82263 18.619V9.99731H9.15942V8.6709H12.4755V8.00769H16.4547V8.6709H19.7708V9.99731H19.1075V18.619C19.1075 18.9838 18.9777 19.296 18.7179 19.5558C18.4582 19.8156 18.1459 19.9454 17.7811 19.9454H11.149ZM17.7811 9.99731H11.149V18.619H17.7811V9.99731Z" fill="#EE0000"/>
    </svg>
    