<?xml version="1.0" encoding="utf-8"?>
<!-- Generator: Adobe Illustrator 23.0.2, SVG Export Plug-In . SVG Version: 6.00 Build 0)  -->
<svg version="1.1" id="Layer_1" xmlns="http://www.w3.org/2000/svg" xmlns:xlink="http://www.w3.org/1999/xlink" x="0px" y="0px"
	 viewBox="0 0 12 12.08" style="enable-background:new 0 0 12 12.08;" xml:space="preserve">
<style type="text/css">
	.st0{fill:#6F7789;}
</style>
<g>
	<g>
		<path class="st0" d="M5.88,0C6.1,0,6.32,0,6.54,0c0.11,0.02,0.22,0.04,0.32,0.05c1.73,0.14,3.12,0.91,4.18,2.28
			c0.62,0.8,0.87,1.73,0.96,2.72c0,0.08,0,0.17,0,0.25c-0.05,0.34-0.06,0.69-0.15,1.02c-0.37,1.42-1.12,2.53-2.62,2.92
			C8.6,9.4,7.93,9.41,7.41,8.9C7.2,8.7,7.08,8.72,6.86,8.89C6.01,9.58,4.87,9.5,4.09,8.73C3.1,7.76,2.85,5.9,3.51,4.57
			c0.64-1.3,2.22-1.99,3.47-1.26c0.07,0.04,0.17,0.1,0.23,0.03c0.38-0.44,0.88-0.16,1.32-0.22c0.3-0.04,0.38,0.15,0.35,0.41
			C8.84,3.85,8.79,4.17,8.76,4.48c-0.1,0.96-0.28,1.91-0.31,2.87C8.43,7.79,8.64,7.93,9.05,7.8c0.31-0.1,0.55-0.32,0.74-0.58
			c0.7-0.92,0.76-1.96,0.48-3.03C9.75,2.31,7.63,1.13,5.53,1.46c-2.45,0.39-4.49,2.83-3.6,5.92c0.75,2.61,2.84,3.43,5.33,3.14
			c0.7-0.08,1.36-0.32,2.02-0.57c0.4-0.15,0.82,0.05,0.96,0.41c0.15,0.39,0,0.77-0.4,0.97c-0.18,0.09-0.38,0.16-0.58,0.23
			c-0.89,0.33-1.81,0.46-2.75,0.52c-0.11,0-0.22,0-0.33,0c-0.14-0.02-0.27-0.04-0.41-0.05c-2.73-0.1-4.98-1.91-5.62-4.57
			C0.09,7.06,0.06,6.63,0,6.21c0-0.08,0-0.17,0-0.25c0.02-0.12,0.04-0.24,0.05-0.37C0.22,3,2.04,0.84,4.58,0.22
			C5,0.12,5.44,0.07,5.88,0z M7.09,6.12c0-0.83-0.38-1.36-0.91-1.44C5.62,4.59,5.16,4.94,4.95,5.6C4.8,6.1,4.8,6.6,4.99,7.09
			c0.25,0.67,0.82,0.83,1.38,0.39C6.86,7.09,7.07,6.55,7.09,6.12z"/>
	</g>
</g>
</svg>
