<?xml version="1.0" encoding="utf-8"?>
<!-- Generator: Adobe Illustrator 23.0.2, SVG Export Plug-In . SVG Version: 6.00 Build 0)  -->
<svg version="1.1" id="Layer_1" xmlns="http://www.w3.org/2000/svg" xmlns:xlink="http://www.w3.org/1999/xlink" x="0px" y="0px"
	 viewBox="0 0 20 14.9" style="enable-background:new 0 0 20 14.9;" xml:space="preserve">
<style type="text/css">
	.st0{fill:#35A854;}
	.st1{fill:#4285F3;}
	.st2{fill:#FABB05;}
	.st3{fill:#C42220;}
	.st4{fill:#E94436;}
	.st5{fill:#E83737;}
</style>
<g>
	<path class="st0" d="M15.44,14.9c0.01-0.06,0.03-0.13,0.03-0.19c0-2.51,0-5.02-0.01-7.53c1.51-1.13,3.02-2.27,4.53-3.4
		c0,3.35,0,6.69,0,10.04c-0.23,0.53-0.59,0.92-1.16,1.08C17.71,14.9,16.58,14.9,15.44,14.9z"/>
	<path class="st1" d="M4.52,7.19c0,2.42-0.01,4.84-0.01,7.26c0,0.15-0.02,0.31-0.02,0.46c-1.13,0-2.27,0-3.4,0
		C0.59,14.67,0.23,14.31,0,13.82c0-3.35,0-6.69,0-10.04C1.51,4.92,3.01,6.05,4.52,7.19z"/>
	<path class="st2" d="M15.44,1.36c0.61-0.5,1.21-1.02,1.93-1.36c0.39,0,0.77,0,1.16,0c0.19,0.1,0.38,0.2,0.57,0.3
		c0.51,0.29,0.68,0.82,0.9,1.32c0,0.72,0,1.44,0,2.16c-1.51,1.13-3.02,2.27-4.53,3.4c0,0-0.02-0.01-0.02-0.01
		c0-1.88-0.01-3.76-0.01-5.63c0.01-0.02,0-0.05-0.01-0.07C15.43,1.44,15.44,1.4,15.44,1.36z"/>
	<path class="st3" d="M2.7,0c0.66,0.39,1.26,0.85,1.85,1.34c0,1.94,0.01,3.88,0.01,5.83C4.55,7.18,4.53,7.19,4.52,7.19
		C3.01,6.05,1.51,4.92,0,3.78c0-0.67,0-1.34,0-2.01c0.15-0.17,0.08-0.4,0.16-0.59C0.43,0.6,0.89,0.24,1.47,0C1.88,0,2.29,0,2.7,0z"
		/>
	<path class="st4" d="M4.56,7.17c0-1.94-0.01-3.88-0.01-5.83c1.29,0.96,2.59,1.92,3.88,2.88C8.86,4.55,9.3,4.86,9.72,5.2
		c0.22,0.18,0.37,0.15,0.59-0.02c1.68-1.28,3.38-2.54,5.07-3.8c0.02-0.01,0.05-0.02,0.07-0.02c0,0.04-0.01,0.08-0.01,0.12
		c-0.01,0.01-0.02,0.02-0.02,0.02c0.01,0.02,0.02,0.03,0.03,0.05c0,1.88,0.01,3.76,0.01,5.63c-1.67,1.25-3.35,2.49-5.01,3.75
		c-0.29,0.22-0.49,0.3-0.84,0.03C7.93,9.68,6.24,8.43,4.56,7.17z"/>
	<path class="st5" d="M15.44,1.54c-0.01-0.02-0.02-0.03-0.03-0.05c0,0,0.01-0.01,0.02-0.02C15.44,1.5,15.44,1.52,15.44,1.54z"/>
</g>
</svg>
