<?xml version="1.0" encoding="utf-8"?>
<!-- Generator: Adobe Illustrator 23.0.2, SVG Export Plug-In . SVG Version: 6.00 Build 0)  -->
<svg version="1.1" id="Layer_1" xmlns="http://www.w3.org/2000/svg" xmlns:xlink="http://www.w3.org/1999/xlink" x="0px" y="0px"
	 viewBox="0 0 17 12.62" style="enable-background:new 0 0 17 12.62;" xml:space="preserve">
<style type="text/css">
	.st0{fill:#00A800;}
</style>
<g>
	<g>
		<path class="st0" d="M9.9,12.62c-1.44-0.24-2.71-0.82-3.75-1.87C5.89,10.48,5.66,10.2,5.46,9.9C5.2,9.49,5.26,9.04,5.61,8.79
			c0.36-0.27,0.83-0.2,1.13,0.2c0.84,1.14,1.93,1.86,3.35,2.03c2.11,0.26,4.1-0.88,4.95-2.82c1.28-2.92-0.67-6.29-3.86-6.61
			C9.4,1.41,7.96,2.07,6.86,3.48C6.66,3.74,6.45,4,6.08,4C5.79,4,5.55,3.88,5.4,3.61C5.23,3.3,5.26,3,5.46,2.72
			C6.4,1.37,7.67,0.51,9.27,0.13C9.48,0.08,9.69,0.04,9.9,0c0.53,0,1.06,0,1.59,0c0.08,0.02,0.17,0.04,0.25,0.06
			c1.93,0.37,3.41,1.4,4.43,3.09C16.62,3.9,16.84,4.74,17,5.59c0,0.48,0,0.96,0,1.44c-0.04,0.16-0.08,0.32-0.11,0.48
			c-0.33,1.67-1.2,2.99-2.57,3.98c-0.85,0.62-1.82,0.94-2.84,1.13C10.96,12.62,10.43,12.62,9.9,12.62z"/>
		<path class="st0" d="M0,6.12c0.18-0.5,0.57-0.62,1.05-0.61c2.68,0,5.36,0,8.04,0c0.15,0,0.3,0,0.51,0
			c-0.22-0.34-0.5-0.55-0.73-0.8C8.72,4.56,8.58,4.42,8.53,4.21C8.46,3.87,8.52,3.55,8.84,3.35c0.3-0.19,0.62-0.18,0.92,0.03
			c0.06,0.04,0.12,0.09,0.17,0.15c0.71,0.71,1.43,1.42,2.13,2.14c0.42,0.42,0.42,0.87,0,1.29c-0.71,0.72-1.42,1.43-2.14,2.14
			C9.53,9.48,9.05,9.5,8.72,9.17c-0.33-0.33-0.3-0.81,0.09-1.21c0.25-0.26,0.53-0.5,0.83-0.78C9.43,7.08,9.27,7.11,9.13,7.11
			c-2.69,0-5.39,0-8.08,0C0.57,7.11,0.18,7,0,6.5C0,6.37,0,6.25,0,6.12z"/>
	</g>
</g>
</svg>
