<?xml version="1.0" encoding="utf-8"?>
<!-- Generator: Adobe Illustrator 23.0.2, SVG Export Plug-In . SVG Version: 6.00 Build 0)  -->
<svg version="1.1" id="Layer_1" xmlns="http://www.w3.org/2000/svg" xmlns:xlink="http://www.w3.org/1999/xlink" x="0px" y="0px"
	 viewBox="0 0 12 15.61" style="enable-background:new 0 0 12 15.61;" xml:space="preserve">
<style type="text/css">
	.st0{fill:#6F7789;}
</style>
<g>
	<path class="st0" d="M6.04,6.02c1.36,0,2.73,0,4.09,0c1.12,0,1.86,0.73,1.87,1.85c0.01,1.96,0,3.93,0,5.89
		c0,1.08-0.76,1.85-1.84,1.85c-2.78,0.01-5.55,0.01-8.33,0c-1.06,0-1.82-0.76-1.82-1.82c-0.01-2-0.01-4,0-6c0-1,0.76-1.76,1.76-1.76
		C3.19,6.01,4.61,6.02,6.04,6.02z M4.83,10.19c0,0.26,0.02,0.54,0.21,0.7c0.41,0.32,0.41,0.74,0.38,1.18
		c-0.01,0.19-0.01,0.38,0.01,0.56c0.03,0.36,0.22,0.54,0.54,0.54c0.34,0.01,0.55-0.19,0.58-0.55c0.02-0.31,0.02-0.62,0.01-0.94
		c-0.01-0.27,0.06-0.47,0.27-0.66c0.38-0.35,0.44-0.98,0.18-1.41c-0.26-0.43-0.8-0.68-1.24-0.57C5.19,9.18,4.84,9.62,4.83,10.19z"/>
	<path class="st0" d="M9.27,5.44c-1.05,0-0.88,0.06-0.91-0.86c-0.01-0.3-0.03-0.6-0.1-0.89C7.99,2.49,7.23,1.86,6.04,1.85
		c-1.22-0.01-2.01,0.61-2.29,1.8c-0.1,0.43-0.13,0.87-0.11,1.3C3.66,5.34,3.5,5.47,3.13,5.45c-0.34-0.02-0.68,0-1.01-0.01
		c-0.16,0-0.3-0.03-0.31-0.24C1.74,3.87,1.95,2.61,2.77,1.5c1.57-2.14,5.74-2.12,6.99,0.91c0.36,0.88,0.47,1.78,0.44,2.72
		c-0.01,0.2-0.09,0.3-0.29,0.3C9.7,5.44,9.48,5.44,9.27,5.44z"/>
</g>
</svg>
