<?xml version="1.0" encoding="utf-8"?>
<!-- Generator: Adobe Illustrator 23.0.2, SVG Export Plug-In . SVG Version: 6.00 Build 0)  -->
<svg version="1.1" id="Layer_1" xmlns="http://www.w3.org/2000/svg" xmlns:xlink="http://www.w3.org/1999/xlink" x="0px" y="0px"
	 viewBox="0 0 12 12" style="enable-background:new 0 0 12 12;" xml:space="preserve">
<style type="text/css">
	.st0{fill:#6F7789;}
</style>
<g>
	<path class="st0" d="M2.72,0c0.16,0.14,0.26,0.33,0.36,0.51c0.29,0.51,0.57,1.03,0.86,1.54c0.09,0.15,0.19,0.29,0.29,0.44
		c0.17,0.25,0.18,0.43,0.01,0.69C4.1,3.4,3.91,3.56,3.7,3.7C3.49,3.85,3.29,4.01,3.1,4.19C2.81,4.46,2.77,4.67,2.97,5.01
		c0.52,0.91,1.07,1.81,1.86,2.52c0.52,0.47,1.08,0.86,1.69,1.21C6.72,8.85,6.9,9.01,7.13,9.08c0.23,0.08,0.4,0.03,0.57-0.13
		c0.25-0.23,0.44-0.51,0.65-0.77c0.1-0.12,0.21-0.25,0.32-0.36c0.19-0.21,0.51-0.25,0.75-0.12c0.26,0.14,0.48,0.33,0.74,0.47
		c0.52,0.28,1.04,0.54,1.53,0.85c0.12,0.08,0.25,0.16,0.31,0.3c0,0.1,0,0.2,0,0.29c-0.02,0.09-0.03,0.18-0.05,0.27
		c-0.06,0.31-0.13,0.62-0.31,0.89c-0.29,0.43-0.73,0.68-1.19,0.89C10.09,11.85,9.7,11.94,9.31,12c-0.21,0-0.43,0-0.64,0
		c-0.18-0.05-0.37-0.08-0.55-0.14c-0.59-0.19-1.18-0.4-1.75-0.66c-0.47-0.21-0.92-0.44-1.34-0.73C4.09,9.82,3.25,9.06,2.51,8.21
		c-0.69-0.8-1.35-1.62-1.73-2.62C0.47,4.8,0.11,4.04,0,3.19C0,3,0,2.8,0,2.6c0.1-0.73,0.41-1.37,0.86-1.96
		c0.22-0.29,0.49-0.5,0.86-0.55C1.89,0.08,2.06,0.03,2.22,0C2.39,0,2.56,0,2.72,0z"/>
</g>
</svg>
