<?xml version="1.0" encoding="utf-8"?>
<!-- Generator: Adobe Illustrator 23.0.2, SVG Export Plug-In . SVG Version: 6.00 Build 0)  -->
<svg version="1.1" id="Layer_1" xmlns="http://www.w3.org/2000/svg" xmlns:xlink="http://www.w3.org/1999/xlink" x="0px" y="0px"
	 viewBox="0 0 12 13.33" style="enable-background:new 0 0 12 13.33;" xml:space="preserve">
<style type="text/css">
	.st0{fill:#6F7789;}
</style>
<g>
	<path class="st0" d="M0,10.87c0.31-0.76,0.63-1.52,1.31-2.05c0.67-0.53,1.4-0.83,2.27-0.83C4.94,8,6.3,8.06,7.66,7.98
		c2.47-0.15,3.98,1.27,4.34,3.32c0,0.42,0,0.85,0,1.27c-0.55,0.79-1.2,0.99-1.73,0.51c-0.35-0.31-0.37-0.74-0.39-1.16
		c-0.05-1.34-0.58-1.85-1.93-1.85c-1.32-0.01-2.63-0.01-3.95,0c-1.35,0.01-1.95,0.59-1.97,1.92c-0.01,0.55-0.07,1.06-0.65,1.28
		c-0.6,0.22-1.04-0.07-1.39-0.55C0,12.09,0,11.48,0,10.87z"/>
	<path class="st0" d="M6.35,0c1.4,0.33,2.45,1.06,2.85,2.51c0.48,1.75-0.52,3.54-2.24,4.06C5.2,7.11,3.35,6.15,2.79,4.41
		C2.23,2.7,3.14,0.86,4.84,0.24C5.1,0.14,5.38,0.08,5.65,0C5.88,0,6.12,0,6.35,0z M5.97,4.63c0.69,0,1.26-0.55,1.28-1.23
		C7.26,2.73,6.7,2.16,6.01,2.14C5.27,2.13,4.7,2.68,4.71,3.4C4.72,4.09,5.27,4.63,5.97,4.63z"/>
</g>
</svg>
