<?xml version="1.0" encoding="utf-8"?>
<!-- Generator: Adobe Illustrator 23.0.2, SVG Export Plug-In . SVG Version: 6.00 Build 0)  -->
<svg version="1.1" id="Layer_1" xmlns="http://www.w3.org/2000/svg" xmlns:xlink="http://www.w3.org/1999/xlink" x="0px" y="0px"
	 viewBox="0 0 20.29 10" style="enable-background:new 0 0 20.29 10;" xml:space="preserve">
<style type="text/css">
	.st0{fill:#A0C1A0;}
</style>
<g>
	<g>
		<path class="st0" d="M20.29,4.86c0,0.1,0,0.19,0,0.29c-1.09,1.34-2.31,2.51-3.85,3.34c-1.48,0.8-3.08,1.24-4.72,1.52
			c-1.05,0-2.1,0-3.14,0C8.04,9.89,7.5,9.8,6.97,9.67C4.11,8.99,1.8,7.46,0,5.14c0-0.1,0-0.19,0-0.29c1.09-1.34,2.31-2.51,3.85-3.34
			C5.33,0.72,6.92,0.28,8.57,0c1.05,0,2.1,0,3.14,0c0.53,0.11,1.07,0.2,1.6,0.33C16.17,1.01,18.49,2.54,20.29,4.86z M10.16,1.32
			c-2.08,0-3.68,1.57-3.7,3.63c-0.01,2.11,1.57,3.73,3.67,3.73c2.08,0,3.68-1.57,3.7-3.63C13.84,2.94,12.25,1.32,10.16,1.32z"/>
		<path class="st0" d="M10.14,7.05c-1.18,0-2.07-0.9-2.05-2.09c0.02-1.15,0.9-2.02,2.05-2.02c1.18,0,2.07,0.9,2.05,2.09
			C12.18,6.18,11.3,7.05,10.14,7.05z"/>
	</g>
</g>
</svg>
